<?xml version="1.0" encoding="UTF-8"?>
<svg id="Capa_1" data-name="Capa 1" xmlns="http://www.w3.org/2000/svg" viewBox="0 0 100.55 103.08">
  <defs>
    <style>
      .cls-1 {
        fill: #f13e36;
      }
    </style>
  </defs>
  <path class="cls-1" d="M13.94,89.44l4.23,2.49c44.96,24.07,86.94-32.56,53.43-68.13C50.7,1.63,12.99,7.65.31,34.64c-.65,0-.1-1.05,0-1.33,1.25-3.8,4.06-8.66,6.42-11.95C23.57-1.99,56.81-7.09,80.18,10.51c27.45,20.66,27.13,62.52-.78,82.68-19.78,14.29-47.84,13.15-65.47-3.75Z"/>
  <path class="cls-1" d="M30.28,20.58c-.14-.85.19-.48.7-.63,29.81-8.28,53.29,24.82,38.09,50.34-8.51,14.28-29.32,21.49-44.55,12.84-.39-.22-.76.05-.59-.73,28.23,7.49,49.94-22.24,35.76-46.49-4.19-7.17-14.98-15.33-23.81-15.33h-5.6Z"/>
</svg>